<?xml version="1.0" encoding="UTF-8"?><svg id="Layer_1" xmlns="http://www.w3.org/2000/svg" xmlns:xlink="http://www.w3.org/1999/xlink" viewBox="0 0 340.74 137.78"><defs><style>.cls-1{fill:#1a4659;}.cls-2{fill:#e2c744;opacity:.9;}.cls-3{fill:#b2dfda;}.cls-4,.cls-5{fill:none;}.cls-5{stroke:#edf2f2;stroke-width:2px;}.cls-5,.cls-6{stroke-miterlimit:10;}.cls-6{fill:url(#New_Pattern_6);stroke:#1a4659;stroke-width:4px;}</style><pattern id="New_Pattern_6" x="0" y="0" width="181.42" height="104.88" patternTransform="translate(-4351.02 -711.62) rotate(13.1) scale(.79)" patternUnits="userSpaceOnUse" viewBox="0 0 181.42 104.88"><rect class="cls-4" width="181.42" height="104.88"/><path class="cls-5" d="M179.67,128.29c3.59,14.8-10.39,28.37-25.59,29.43-15.19,1.06-28.37-10.39-29.43-25.59s10.39-28.37,25.59-29.43,25.95,11.24,29.43,25.59Z"/><path class="cls-5" d="M166.19,103.2c-14.19-5.53-17.3-24.78-9.46-37.84,7.84-13.06,24.78-17.3,37.84-9.46,13.06,7.84,17.3,24.78,9.46,37.84-7.84,13.06-24.08,14.83-37.84,9.46Z"/><circle class="cls-2" cx="184.69" cy="78.05" r="19.5"/><path class="cls-3" d="M157.75,89.28c-1.72-1.72-2.28-5.43-1.25-8.29s3.27-3.79,5-2.07,2.28,5.43,1.25,8.29-3.27,3.79-5,2.07Z"/><path class="cls-5" d="M75.48,155.65c-14.19-5.53-17.3-24.78-9.46-37.84,7.84-13.06,24.78-17.3,37.84-9.46,13.06,7.84,17.3,24.78,9.46,37.84-7.84,13.06-24.08,14.83-37.84,9.46Z"/><path class="cls-5" d="M-15.23,103.2c-14.19-5.53-17.3-24.78-9.46-37.84C-16.85,52.31.09,48.07,13.15,55.91c13.06,7.84,17.3,24.78,9.46,37.84-7.84,13.06-24.08,14.83-37.84,9.46Z"/><circle class="cls-2" cx="3.27" cy="78.05" r="19.5"/><path class="cls-5" d="M37.63,155.6c-13.56,6.94-30.01-3.51-34.58-18.04s3.51-30.01,18.04-34.58,30.01,3.51,34.58,18.04-4.9,27.85-18.04,34.58Z"/><path class="cls-5" d="M179.67,23.41c3.59,14.8-10.39,28.37-25.59,29.43-15.19,1.06-28.37-10.39-29.43-25.59s10.39-28.37,25.59-29.43,25.95,11.24,29.43,25.59Z"/><circle class="cls-2" cx="148.46" cy="22.66" r="19.5"/><ellipse class="cls-3" cx="168.91" cy="39.28" rx="3.62" ry="5.65" transform="translate(21.7 130.94) rotate(-45)"/><path class="cls-5" d="M166.19-1.68c-14.19-5.53-17.3-24.78-9.46-37.84,7.84-13.06,24.78-17.3,37.84-9.46,13.06,7.84,17.3,24.78,9.46,37.84-7.84,13.06-24.08,14.83-37.84,9.46Z"/><path class="cls-5" d="M88.97,75.85c3.59,14.8-10.39,28.37-25.59,29.43-15.19,1.06-28.37-10.39-29.43-25.59s10.39-28.37,25.59-29.43,25.95,11.24,29.43,25.59Z"/><circle class="cls-2" cx="57.75" cy="75.1" r="19.5"/><ellipse class="cls-3" cx="78.2" cy="91.72" rx="3.62" ry="5.65" transform="translate(-41.95 82.16) rotate(-45)"/><path class="cls-5" d="M75.48,50.76c-14.19-5.53-17.3-24.78-9.46-37.84C73.86-.13,90.8-4.37,103.86,3.46c13.06,7.84,17.3,24.78,9.46,37.84-7.84,13.06-24.08,14.83-37.84,9.46Z"/><circle class="cls-2" cx="93.98" cy="25.61" r="19.5"/><path class="cls-3" d="M67.04,36.84c-1.72-1.72-2.28-5.43-1.25-8.29s3.27-3.79,5-2.07,2.28,5.43,1.25,8.29-3.27,3.79-5,2.07Z"/><path class="cls-5" d="M128.34,103.15c-13.56,6.94-30.01-3.51-34.58-18.04s3.51-30.01,18.04-34.58c14.53-4.57,30.01,3.51,34.58,18.04s-4.9,27.85-18.04,34.58Z"/><circle class="cls-2" cx="121.81" cy="72.62" r="19.5"/><path class="cls-3" d="M112.54,100.7c-2.98-.51-5.48-2.72-5.59-4.93-.11-2.21,2.21-3.59,5.18-3.08s5.48,2.72,5.59,4.93-2.21,3.59-5.18,3.08Z"/><path class="cls-5" d="M-15.23-1.68c-14.19-5.53-17.3-24.78-9.46-37.84C-16.85-52.58.09-56.81,13.15-48.98c13.06,7.84,17.3,24.78,9.46,37.84C14.78,1.92-1.47,3.69-15.23-1.68Z"/><path class="cls-5" d="M37.63,50.71c-13.56,6.94-30.01-3.51-34.58-18.04C-1.52,18.14,6.56,2.66,21.09-1.91s30.01,3.51,34.58,18.04-4.9,27.85-18.04,34.58Z"/><circle class="cls-2" cx="31.1" cy="20.18" r="19.5"/><path class="cls-3" d="M21.83,48.26c-2.98-.51-5.48-2.72-5.59-4.93s2.21-3.59,5.18-3.08,5.48,2.72,5.59,4.93-2.21,3.59-5.18,3.08Z"/><path class="cls-5" d="M88.97-29.03C92.56-14.23,78.57-.66,63.38.4c-15.19,1.06-28.37-10.39-29.43-25.59s10.39-28.37,25.59-29.43,25.95,11.24,29.43,25.59Z"/><path class="cls-5" d="M128.34-1.73c-13.56,6.94-30.01-3.51-34.58-18.04s3.51-30.01,18.04-34.58,30.01,3.51,34.58,18.04-4.9,27.85-18.04,34.58Z"/></pattern></defs><path class="cls-1" d="M153.91,78.86h-1.42v-27.96h1.42v18.59l10.24-8.07h2.01l-10.44,8.23,11.34,9.22h-2.24l-10.91-8.98v8.98Z"/><path class="cls-1" d="M171.6,64.96l.04.04h.08c1.46-2.68,3.98-3.98,6.62-3.98,4.06,0,6.5,2.44,6.5,6.97v10.87h-1.5v-10.59c0-3.82-1.97-5.91-5.08-5.91-1.77,0-3.35.63-4.65,1.85s-1.93,2.95-1.93,5.24v9.41h-1.46v-17.45h1.14l.24,3.54Z"/><path class="cls-1" d="M205.15,63.66c1.69,1.73,2.56,3.9,2.56,6.46s-.87,4.73-2.56,6.5c-1.69,1.73-3.82,2.6-6.38,2.6-2.72,0-4.92-.87-6.58-2.56-1.61-1.73-2.44-3.9-2.44-6.54s.87-4.69,2.6-6.46c1.77-1.77,3.9-2.64,6.42-2.64s4.69.87,6.38,2.64ZM193.38,64.56c-1.42,1.54-2.13,3.39-2.13,5.55s.67,4.14,2.05,5.63c1.38,1.5,3.19,2.24,5.47,2.24s3.98-.75,5.36-2.28,2.09-3.39,2.09-5.59-.71-4.06-2.09-5.55c-1.38-1.54-3.19-2.28-5.36-2.28s-3.94.75-5.4,2.28Z"/><path class="cls-1" d="M209.49,61.41h1.5l5.67,14.53,5.79-14.53h.39l5.87,14.53h.08l5.55-14.53h1.46l-6.85,17.49h-.47l-5.83-14.49h-.04l-5.83,14.49h-.47l-6.81-17.49Z"/><path class="cls-1" d="M240.72,78.86h-1.5v-28h1.5v28Z"/><path class="cls-1" d="M261.91,70.47h-14.89c-.08,2.01.59,3.74,2.05,5.24,1.46,1.5,3.27,2.24,5.47,2.24,2.48,0,4.69-.75,6.62-2.21v1.5c-1.77,1.3-3.98,1.97-6.58,1.97-5.55,0-9.06-3.58-9.06-9.14,0-2.56.79-4.69,2.4-6.42,1.61-1.77,3.62-2.64,6.02-2.64s4.41.83,5.83,2.52c1.42,1.65,2.13,3.74,2.13,6.22v.71ZM249.19,64.29c-1.3,1.3-2.01,2.95-2.13,4.96h13.43c-.32-4.14-2.56-6.89-6.5-6.89-1.93,0-3.5.63-4.8,1.93Z"/><path class="cls-1" d="M282.16,65.27v-14.41h1.42v28h-1.18l-.24-4.02h-.08c-1.3,2.72-4.14,4.37-7.29,4.37-2.72,0-4.88-.87-6.5-2.56-1.62-1.69-2.4-3.9-2.4-6.58s.83-4.69,2.52-6.42c1.69-1.77,3.82-2.64,6.38-2.64,3.27,0,6.03,1.65,7.25,4.33l.12-.08ZM269.4,75.71c1.38,1.5,3.19,2.24,5.43,2.24s4.02-.75,5.36-2.21c1.34-1.5,2.01-3.39,2.01-5.67s-.67-4.06-2.05-5.55c-1.34-1.5-3.11-2.24-5.32-2.24s-4.02.75-5.4,2.24c-1.38,1.5-2.05,3.35-2.05,5.55s.67,4.14,2.01,5.63Z"/><path class="cls-1" d="M304.18,65.15l.35-3.74h1.14v16.54c0,6.26-3.58,9.96-10.04,9.96-2.72,0-5.04-.59-7.01-1.77v-1.54c2.25,1.38,4.57,2.05,7.05,2.05,5.51,0,8.63-3.27,8.63-8.74v-3.11s-.08,0-.12-.04h-.04c-1.3,2.8-4.1,4.45-7.29,4.45-2.72,0-4.92-.83-6.54-2.48-1.61-1.69-2.4-3.86-2.4-6.5s.87-4.73,2.56-6.5c1.69-1.77,3.86-2.68,6.42-2.68,3.11,0,5.87,1.58,7.13,4.1h.16ZM302.21,75.75c1.34-1.5,2.01-3.35,2.01-5.51,0-2.28-.67-4.17-2.01-5.67s-3.11-2.24-5.28-2.24-4.06.75-5.43,2.28c-1.38,1.54-2.09,3.39-2.09,5.63s.67,4.14,2.01,5.59c1.38,1.46,3.19,2.17,5.47,2.17s3.98-.75,5.32-2.24Z"/><path class="cls-1" d="M326.59,70.47h-14.89c-.08,2.01.59,3.74,2.05,5.24,1.46,1.5,3.27,2.24,5.47,2.24,2.48,0,4.69-.75,6.62-2.21v1.5c-1.77,1.3-3.98,1.97-6.58,1.97-5.55,0-9.06-3.58-9.06-9.14,0-2.56.79-4.69,2.4-6.42,1.61-1.77,3.62-2.64,6.02-2.64s4.41.83,5.83,2.52c1.42,1.65,2.13,3.74,2.13,6.22v.71ZM313.87,64.29c-1.3,1.3-2.01,2.95-2.13,4.96h13.43c-.32-4.14-2.56-6.89-6.5-6.89-1.93,0-3.51.63-4.8,1.93Z"/><path class="cls-1" d="M135.01,118.22v12.17h-1.42v-25.76h1.18l.24,3.98.16.04c1.3-2.72,4.14-4.37,7.29-4.37,2.72,0,4.84.87,6.46,2.56,1.62,1.69,2.4,3.9,2.4,6.54s-.87,4.69-2.56,6.46c-1.69,1.77-3.78,2.64-6.34,2.64-3.27,0-6.03-1.65-7.25-4.33l-.16.08ZM147.73,118.97c1.38-1.54,2.09-3.39,2.09-5.59s-.67-4.1-2.05-5.59c-1.34-1.5-3.15-2.24-5.4-2.24s-4.02.75-5.36,2.24c-1.34,1.46-2.01,3.35-2.01,5.59s.67,4.1,2.01,5.59c1.38,1.5,3.15,2.24,5.36,2.24s3.98-.75,5.36-2.24Z"/><path class="cls-1" d="M170.65,106.92c1.69,1.73,2.56,3.9,2.56,6.46s-.87,4.73-2.56,6.5c-1.69,1.73-3.82,2.6-6.38,2.6-2.72,0-4.92-.87-6.58-2.56-1.61-1.73-2.44-3.9-2.44-6.54s.87-4.69,2.6-6.46c1.77-1.77,3.9-2.64,6.42-2.64s4.69.87,6.38,2.64ZM158.88,107.83c-1.42,1.54-2.13,3.39-2.13,5.55s.67,4.14,2.05,5.63c1.38,1.5,3.19,2.24,5.47,2.24s3.98-.75,5.36-2.28c1.38-1.54,2.09-3.39,2.09-5.59s-.71-4.06-2.09-5.55c-1.38-1.54-3.19-2.28-5.36-2.28s-3.94.75-5.4,2.28Z"/><path class="cls-1" d="M179.59,122.12h-1.46v-17.45h1.02l.24,4.84s.08.04.12.04c.98-3.78,3.5-5.28,6.34-5.28.59,0,1.06.04,1.38.12v1.46c-.51-.12-1.06-.16-1.69-.16-3.98,0-5.95,3.54-5.95,10.59v5.83Z"/><path class="cls-1" d="M199.13,104.68v1.22h-5.99v11.15c0,2.64.83,4.02,3.31,4.02,1.26,0,2.44-.39,3.54-1.18v1.38c-1.06.75-2.28,1.14-3.7,1.14-3.51,0-4.65-1.89-4.65-5.36v-11.15h-3.19v-.98c.79-.08,2.4-.24,3.19-.24l.83-5.24h.67v5.24h5.99Z"/><path class="cls-1" d="M218.67,118.07h-.12c-1.3,2.72-4.02,4.41-7.21,4.41-2.72,0-4.84-.83-6.46-2.52-1.62-1.69-2.4-3.86-2.4-6.54s.83-4.69,2.52-6.42c1.69-1.77,3.82-2.64,6.38-2.64,3.15,0,6.03,1.65,7.17,4.29h.04l.35-3.98h1.14v17.45h-1.14l-.28-4.06ZM216.7,119.01c1.38-1.5,2.05-3.35,2.05-5.59s-.67-4.1-2.05-5.55c-1.38-1.46-3.11-2.21-5.28-2.21s-4.02.75-5.4,2.25c-1.38,1.46-2.05,3.31-2.05,5.51s.67,4.14,1.97,5.63c1.34,1.46,3.15,2.21,5.43,2.21s3.98-.75,5.32-2.24Z"/><path class="cls-1" d="M227.53,122.12h-1.5v-28h1.5v28Z"/><path class="cls-6" d="M92.6,6.16h-40.64c-10.03,0-19.3,5.35-24.32,14.04L7.33,55.39c-5.02,8.69-5.02,19.39,0,28.08l20.32,35.2c5.02,8.69,14.28,14.04,24.32,14.04h40.64c10.03,0,19.3-5.35,24.32-14.04l20.32-35.2c5.02-8.69,5.02-19.39,0-28.08l-20.32-35.2c-5.02-8.69-14.28-14.04-24.32-14.04Z"/><path class="cls-1" d="M252.48,18.78h.71v4.7h3.84v3.22h-3.84v5.7c0,1.55.55,2.22,1.87,2.22.74,0,1.58-.26,2.45-.77v3.32c-1.06.68-2.32,1-3.77,1-3.26,0-4.87-1.68-4.87-5.03v-6.45h-2.22v-2.42l2.71-.87,3.13-4.64Z"/><path class="cls-1" d="M259.9,18.69c0-1.32,1.16-2.38,2.42-2.38,1.39,0,2.39,1.06,2.39,2.38s-1,2.42-2.39,2.42-2.42-1.1-2.42-2.42ZM264.44,37.83h-4.42v-14.37h4.42v14.37Z"/><path class="cls-1" d="M267.21,33.25c1.42,1.06,3.51,1.77,4.93,1.77s2.13-.39,2.13-1.16c0-2.09-6.7-2.26-6.7-6.57,0-2.58,2.19-4.22,5.41-4.22,1.58,0,3.16.32,4.74,1v3.45c-1.42-.81-2.77-1.19-4.09-1.19-1.19,0-1.81.35-1.81,1.06-.03,1.61,6.67,1.74,6.64,6.38,0,2.48-2.06,4.38-5.83,4.38-2.13,0-3.93-.42-5.41-1.22v-3.67Z"/><path class="cls-1" d="M280.08,33.25c1.42,1.06,3.51,1.77,4.93,1.77s2.13-.39,2.13-1.16c0-2.09-6.7-2.26-6.7-6.57,0-2.58,2.19-4.22,5.41-4.22,1.58,0,3.16.32,4.74,1v3.45c-1.42-.81-2.77-1.19-4.09-1.19-1.19,0-1.81.35-1.81,1.06-.03,1.61,6.67,1.74,6.64,6.38,0,2.48-2.06,4.38-5.83,4.38-2.13,0-3.93-.42-5.41-1.22v-3.67Z"/><path class="cls-1" d="M294.07,23.46h4.35v8.31c0,1.68.9,2.97,2.35,2.97,1.81,0,2.93-1.32,2.93-3.93v-7.32h4.35v14.34h-3.48l-.51-1.97h-.13c-1.13,1.45-2.68,2.19-4.61,2.19-3.51,0-5.25-1.9-5.25-5.67v-8.93Z"/><path class="cls-1" d="M325.59,30.51v.97h-10.22c.23,2.26,1.68,3.38,4.32,3.38,1.77,0,3.48-.55,5.19-1.68v3.45c-1.58,1.03-3.48,1.55-5.64,1.55-2.64,0-4.67-.71-6.09-2.13-1.39-1.42-2.1-3.26-2.1-5.48s.68-3.93,2.06-5.38c1.39-1.45,3.16-2.19,5.35-2.19,4.42,0,7.12,2.9,7.12,7.51ZM315.5,28.77h6.09c-.39-1.77-1.39-2.64-2.96-2.64s-2.74,1.06-3.13,2.64Z"/><path class="cls-1" d="M164.6,14.62v-4.74c.03-2.13.03-3.71.03-4.77h4.19v11.44c.03,5.06.03,8.89.03,11.44h-3.29l-.58-1.68c-1.19,1.39-3.29,2.03-5.12,2.03-2.22,0-3.96-.68-5.22-2-1.26-1.35-1.9-3.13-1.9-5.32s.68-4.16,2.06-5.61c1.39-1.45,3.13-2.19,5.25-2.19,1.8,0,3.25.48,4.38,1.48l.16-.1ZM156.99,20.84c0,2.45,1.42,4.06,3.74,4.06,2.16,0,3.74-1.8,3.74-4.13s-1.45-4.09-3.8-4.09c-2.19,0-3.67,1.8-3.67,4.16Z"/><path class="cls-1" d="M172.4,8.86c0-1.32,1.16-2.38,2.42-2.38,1.39,0,2.39,1.06,2.39,2.38s-1,2.42-2.39,2.42-2.42-1.1-2.42-2.42ZM176.94,28h-4.42v-14.37h4.42v14.37Z"/><path class="cls-1" d="M184.94,26.84v8.12h-4.29V13.63h3.38l.52,1.93h.13c1.13-1.52,3.06-2.32,4.96-2.32,4.55,0,7.25,3,7.25,7.41,0,2.26-.68,4.09-2.06,5.51-1.35,1.42-3.09,2.13-5.25,2.13-1.9,0-3.42-.52-4.51-1.52l-.06.03-.06.03ZM192.61,20.78c0-2.45-1.39-4.06-3.71-4.06-2.16,0-3.74,1.8-3.74,4.13s1.45,4.06,3.77,4.06,3.67-1.77,3.67-4.13Z"/><path class="cls-1" d="M213.01,15.37c1.45,1.42,2.19,3.22,2.19,5.41s-.74,4-2.22,5.41-3.42,2.13-5.77,2.13c-2.48,0-4.45-.71-5.9-2.09-1.45-1.42-2.16-3.22-2.16-5.45s.74-3.96,2.26-5.41c1.52-1.45,3.45-2.16,5.8-2.16s4.35.71,5.8,2.16ZM203.5,20.72c0,2.45,1.42,4.13,3.74,4.13s3.77-1.77,3.77-4.13-1.48-4.03-3.77-4.03-3.74,1.74-3.74,4.03Z"/><path class="cls-1" d="M217.04,23.42c1.42,1.06,3.51,1.77,4.93,1.77s2.13-.39,2.13-1.16c0-2.09-6.7-2.26-6.7-6.57,0-2.58,2.19-4.22,5.41-4.22,1.58,0,3.16.32,4.74,1v3.45c-1.42-.81-2.77-1.19-4.09-1.19-1.19,0-1.81.35-1.81,1.06-.03,1.61,6.67,1.74,6.64,6.38,0,2.48-2.06,4.38-5.83,4.38-2.13,0-3.93-.42-5.41-1.22v-3.67Z"/><path class="cls-1" d="M244.86,20.68v.97h-10.22c.23,2.26,1.68,3.38,4.32,3.38,1.77,0,3.48-.55,5.19-1.68v3.45c-1.58,1.03-3.48,1.55-5.64,1.55-2.64,0-4.67-.71-6.09-2.13-1.39-1.42-2.1-3.26-2.1-5.48s.68-3.93,2.06-5.38c1.39-1.45,3.16-2.19,5.35-2.19,4.42,0,7.12,2.9,7.12,7.51ZM234.77,18.94h6.09c-.39-1.77-1.39-2.64-2.96-2.64s-2.74,1.06-3.13,2.64Z"/><path class="cls-1" d="M146.9,13.69l-.64,1.8c-1.19-1.45-2.9-2.16-5.12-2.16s-4.09.74-5.48,2.22c-1.39,1.48-2.06,3.32-2.06,5.48,0,4.51,2.71,7.28,7.25,7.28,2.09,0,3.8-.71,5.09-2.09.03,0,.1.03.13.03l.39,1.8h3.32v-14.37h-2.87ZM136.57,16.82c0-.77.61-1.4,1.37-1.4s1.37.63,1.37,1.4-.61,1.4-1.37,1.4-1.37-.63-1.37-1.4ZM141.68,24.97c-2.32,0-3.74-1.68-3.74-4.13,0-2.29,1.51-4.03,3.74-4.03s3.74,1.71,3.74,4.03-1.45,4.13-3.74,4.13Z"/></svg>